Coordinates
version=1
nRows=4
nColumns=63
inDegrees=yes

Units are S.I. units (second, meters, Newtons, ...)
If the header above contains a line with 'inDegrees', this indicates whether rotational values are in degrees (yes) or radians (no).

endheader
time	pelvis_tilt	pelvis_list	pelvis_rotation	pelvis_tx	pelvis_ty	pelvis_tz	hip_flexion_r	hip_adduction_r	hip_rotation_r	knee_angle_r	knee_angle_r_beta	ankle_angle_r	subtalar_angle_r	mtp_angle_r	hip_flexion_l	hip_adduction_l	hip_rotation_l	knee_angle_l	knee_angle_l_beta	ankle_angle_l	subtalar_angle_l	mtp_angle_l	L5_S1_Flex_Ext	L5_S1_Lat_Bending	L5_S1_axial_rotation	L4_L5_Flex_Ext	L4_L5_Lat_Bending	L4_L5_axial_rotation	L3_L4_Flex_Ext	L3_L4_Lat_Bending	L3_L4_axial_rotation	L2_L3_Flex_Ext	L2_L3_Lat_Bending	L2_L3_axial_rotation	L1_L2_Flex_Ext	L1_L2_Lat_Bending	L1_L2_axial_rotation	L1_T12_Flex_Ext	L1_T12_Lat_Bending	L1_T12_axial_rotation	Abs_r3	Abs_r2	Abs_r1	Abs_t1	Abs_t2	neck_flexion	neck_bending	neck_rotation	arm_flex_r	arm_add_r	arm_rot_r	elbow_flex_r	pro_sup_r	wrist_flex_r	wrist_dev_r	arm_flex_l	arm_add_l	arm_rot_l	elbow_flex_l	pro_sup_l	wrist_flex_l	wrist_dev_l
      7.78300000	    -51.12312582	     -3.58077127	     -1.79406790	     -0.37488766	      1.11690534	      0.04777192	    105.82216110	     -5.81516922	     -3.14795691	    110.62769479	      1.93081752	      8.77900024	      2.53783621	      0.00000000	     93.11388462	     -7.33438069	      2.59857527	     53.38144803	      0.93168203	      9.03836090	      6.00638995	      0.00000000	     -0.08732193	      0.30661793	      0.96677521	     -0.16216556	      0.40780185	      1.02719866	     -0.14346121	      0.74551084	      1.02719866	     -0.09980024	      0.74551084	      0.84592831	     -0.08108715	      0.62525529	      0.78550486	     -0.04989575	      0.47495118	      0.72508141	     -0.62373184	      3.46852337	      5.37691370	      0.00000000	      0.00000000	      0.00000000	      0.00000000	      0.00000000	     72.41995605	    -17.69544893	     19.43091001	     36.28060673	     53.46393624	      0.00000000	      5.00000008	     71.32769520	     -6.51399508	     14.23098157	     34.80559979	     56.43343240	      0.00000000	      5.00000008
      7.79200000	    -51.09890457	     -3.78410014	     -2.08346445	     -0.37442501	      1.11684004	      0.04793953	    107.00580881	     -5.77043593	     -3.37444052	    111.85230013	      1.95219091	      9.18464774	      2.55583998	      0.00000000	     91.70717757	     -7.81404830	      2.24714729	     51.72274379	      0.90273218	      8.80723834	      6.26979727	      0.00000000	     -0.08690525	      0.34262475	      1.03097658	     -0.16139175	      0.45569091	      1.09541262	     -0.14277664	      0.83305781	      1.09541262	     -0.09932401	      0.83305781	      0.90210451	     -0.08070022	      0.69868038	      0.83766847	     -0.04965766	      0.53072573	      0.77323243	     -0.62075554	      3.87583966	      5.73398244	      0.00000000	      0.00000000	      0.00000000	      0.00000000	      0.00000000	     72.47259156	    -17.77830504	     19.47321650	     36.25396059	     53.45496399	      0.00000000	      5.00000008	     71.23711674	     -6.40709011	     14.16587618	     34.74232910	     56.40310085	      0.00000000	      5.00000008
      7.80000000	    -51.04067203	     -3.40957768	     -2.07070422	     -0.37385105	      1.11656673	      0.04831143	    108.34347787	     -5.84021523	     -2.92218657	    113.14723917	      1.97479186	      9.90541315	      2.76235540	      0.00000000	     90.12288137	     -8.07332290	      1.16483535	     50.07830057	      0.87403123	      9.31665535	      7.46824930	      0.00000000	     -0.08662813	      0.29559824	      1.03491980	     -0.16087709	      0.39314566	      1.09960229	     -0.14232135	      0.71871756	      1.09960229	     -0.09900729	      0.71871756	      0.90555483	     -0.08044288	      0.60278393	      0.84087234	     -0.04949931	      0.45788167	      0.77618985	     -0.61877605	      3.34386642	      5.75591347	      0.00000000	      0.00000000	      0.00000000	      0.00000000	      0.00000000	     72.36582468	    -17.80139202	     19.68704431	     36.22170740	     53.48104502	      0.00000000	      5.00000009	     71.31891567	     -6.28595578	     13.78569357	     34.40515769	     56.35390923	      0.00000000	      5.00000009
      7.80800000	    -50.99605316	     -3.62610680	     -2.34177804	     -0.37321111	      1.11646605	      0.04863860	    109.47987071	     -5.75214231	     -3.18178161	    114.13580613	      1.99204561	     10.26777314	      2.77509202	      0.00000000	     88.85553212	     -8.50025175	      0.94383256	     48.85897425	      0.85274997	      9.17282894	      7.59727272	      0.00000000	     -0.08560393	      0.33071896	      1.09963576	     -0.15897506	      0.43985622	      1.16836300	     -0.14063870	      0.80411009	      1.16836300	     -0.09783673	      0.80411009	      0.96218129	     -0.07949181	      0.67440211	      0.89345406	     -0.04891409	      0.51228367	      0.82472682	     -0.61146032	      3.74115905	      6.11584421	      0.00000000	      0.00000000	      0.00000000	      0.00000000	      0.00000000	     72.36024871	    -17.91200590	     19.67015419	     36.17958512	     53.46768568	      0.00000000	      5.00000009	     71.21125738	     -6.18911646	     13.75836388	     34.32656349	     56.33611570	      0.00000000	      5.00000009
